# xmcd
#
# Track frame offsets:
#	180
#	12910
#	32714
#	51979
#	67676
#	83105
#	97657
#	116763
#	133854
#	147553
#	161954
#	182866
#	205064
#	219074
#	241721
#
# Disc length: 3379 seconds
#
# Revision: 0
# Processed by: cddbd v1.5.1PL2 Copyright (c) Steve Scherf et al.
# Submitted via: audiograbber 1.83.01
#
DISCID=ca0d310f
DTITLE=Sound Choice - SC7522
DYEAR=1900
DGENRE=Karaoke Country
TTITLE0=Johnny Paycheck - Take This Job And Shove It
TTITLE1=Tim Mcgraw - Don't Take The Girl
TTITLE2=Hank Williams, Jr. - Family Tradition
TTITLE3=The Forester Sisters - Men
TTITLE4=Mary-Chapin Carpenter - I Feel Lucky
TTITLE5=Collin Raye - That's My Story
TTITLE6=Little Texas - God Blessed Texas
TTITLE7=Reba Mcentire - Why Haven't I Heard From You
TTITLE8=John Michael Montgomery - Be My Baby Tonight
TTITLE9=Standards - Rocky Top
TTITLE10=Reba Mcentire - Fancy
TTITLE11=Marty Robbins - El Paso
TTITLE12=The Kentucky Headhunters - Dumas Walker
TTITLE13=Willie Nelson or Merle Haggard - Pancho And Lefty
TTITLE14=Patsy Cline - Leavin' On Your Mind
EXTD=
EXTT0=
EXTT1=
EXTT2=
EXTT3=
EXTT4=
EXTT5=
EXTT6=
EXTT7=
EXTT8=
EXTT9=
EXTT10=
EXTT11=
EXTT12=
EXTT13=
EXTT14=
PLAYORDER=
